<?xml version="1.0" encoding="utf-8"?><svg viewBox="0 0 105 95" xmlns="http://www.w3.org/2000/svg" xmlns:xlink="http://www.w3.org/1999/xlink"><style>:root>svg{display:none}:root>svg:target{display:block}</style><svg fill="none" viewBox="0 0 48 42" id="download" xmlns="http://www.w3.org/2000/svg"><path d="M23.041 32.791a1 1 0 001.414 0l6.364-6.364a1 1 0 00-1.414-1.414l-5.657 5.657-5.657-5.657a1 1 0 00-1.414 1.414l6.364 6.364zM22.748 0v32.084h2V0h-2z" fill="#fff"/><path stroke="#fff" stroke-width="2" stroke-linecap="round" d="M46.496 41H1"/></svg><svg fill="none" viewBox="0 0 95 95" id="earth" xmlns="http://www.w3.org/2000/svg"><path d="M47.5 0C21.266 0 0 21.266 0 47.5S21.266 95 47.5 95 95 73.734 95 47.5 73.734 0 47.5 0zm15.761 68.492c-.747.743-1.53 1.523-2.166 2.16a4.577 4.577 0 00-1.182 2.052c-.289 1.084-.523 2.18-.913 3.23l-3.331 8.974a38.276 38.276 0 01-8.169.898v-5.244c.324-2.417-1.463-6.945-4.334-9.816a6.13 6.13 0 01-1.795-4.334V60.28c0-2.23-1.2-4.279-3.153-5.357-2.752-1.523-6.667-3.65-9.348-5.001a27.614 27.614 0 01-6.062-4.166l-.154-.138a21.99 21.99 0 01-3.459-3.972 3160.732 3160.732 0 01-6.625-9.795c3.92-8.715 10.987-15.713 19.766-19.515l4.6 2.3c2.037 1.019 4.435-.462 4.435-2.74V9.731a38.278 38.278 0 014.671-.464l5.42 5.42a3.065 3.065 0 010 4.335l-.898.896-1.98 1.98a1.533 1.533 0 000 2.167l.898.898a1.533 1.533 0 010 2.167l-1.532 1.532a1.534 1.534 0 01-1.084.448h-1.722c-.398 0-.781.155-1.069.435l-1.9 1.848a1.533 1.533 0 00-.302 1.783l2.986 5.974a1.533 1.533 0 01-1.37 2.218h-1.08a1.53 1.53 0 01-1.004-.375l-1.777-1.544a3.068 3.068 0 00-2.978-.594l-5.97 1.99a2.288 2.288 0 00-.3 4.22l2.123 1.06a12.971 12.971 0 005.805 1.372c2.015 0 4.327 5.227 6.13 6.13h12.784c1.626 0 3.183.645 4.335 1.794l2.622 2.622a5.843 5.843 0 011.71 4.131 8.912 8.912 0 01-2.628 6.317zM79.87 50.995a4.597 4.597 0 01-2.71-1.91l-3.444-5.165a4.591 4.591 0 010-5.098l3.752-5.628a4.591 4.591 0 011.77-1.56l2.486-1.244c2.59 5.157 4.083 10.956 4.083 17.11 0 1.66-.141 3.287-.348 4.892l-5.59-1.397z" fill="url(#bpaint0_linear_1_3696)"/><defs><linearGradient id="bpaint0_linear_1_3696" x1="47.5" y1="0" x2="131.325" y2="114.168" gradientUnits="userSpaceOnUse"><stop stop-color="#8BD7DC"/><stop offset="1" stop-color="#1246A9"/></linearGradient></defs></svg><svg fill="none" viewBox="0 0 105 83" id="manager" xmlns="http://www.w3.org/2000/svg"><path d="M81.375 36.313c-13.06 0-23.625 10.44-23.625 23.343C57.75 72.56 68.316 83 81.375 83 94.435 83 105 72.56 105 59.656c0-12.904-10.566-23.343-23.625-23.343zm10.5 24.364c0 .86-.722 1.573-1.591 1.573H80.34c-.87 0-1.591-.713-1.591-1.572V48.26c0-.86.722-1.572 1.591-1.572h2.068c.87 0 1.591.713 1.591 1.572v8.803h6.284c.87 0 1.591.713 1.591 1.572v2.043zM52.5 59.657c0-4.507 1.1-8.77 2.986-12.564-1.313-.243-2.658-.406-4.036-.406h-2.74a28.88 28.88 0 01-11.96 2.594c-4.266 0-8.302-.94-11.96-2.593h-2.74C9.877 46.688 0 56.445 0 68.475v6.744C0 79.515 3.527 83 7.875 83h56.946C57.39 77.829 52.5 69.302 52.5 59.656zM36.75 41.5c11.6 0 21-9.289 21-20.75S48.35 0 36.75 0s-21 9.289-21 20.75 9.4 20.75 21 20.75z" fill="url(#cpaint0_linear_1_3701)"/><defs><linearGradient id="cpaint0_linear_1_3701" x1="52.5" y1="0" x2="119.15" y2="114.836" gradientUnits="userSpaceOnUse"><stop stop-color="#8BD7DC"/><stop offset="1" stop-color="#1246A9"/></linearGradient></defs></svg><svg fill="none" viewBox="0 0 71 91" id="three" xmlns="http://www.w3.org/2000/svg"><path d="M35.111 90.193c-6.648 0-12.542-1.136-17.684-3.409-5.114-2.301-9.148-5.469-12.103-9.503C2.37 73.247.864 68.602.807 63.347H22.03c.085 1.903.696 3.593 1.832 5.07 1.136 1.45 2.685 2.586 4.645 3.41 1.96.824 4.19 1.236 6.69 1.236s4.702-.44 6.605-1.322c1.932-.909 3.438-2.144 4.517-3.707 1.08-1.59 1.606-3.409 1.577-5.455.029-2.045-.554-3.863-1.747-5.454-1.193-1.59-2.883-2.827-5.07-3.707-2.16-.881-4.717-1.321-7.671-1.321h-8.48v-15h8.48c2.585 0 4.858-.427 6.818-1.279 1.988-.852 3.537-2.045 4.645-3.58 1.108-1.562 1.647-3.352 1.619-5.369.028-1.96-.44-3.679-1.406-5.156-.938-1.506-2.259-2.67-3.963-3.494-1.676-.824-3.622-1.236-5.838-1.236-2.33 0-4.446.412-6.35 1.236-1.875.824-3.366 1.988-4.474 3.494-1.108 1.506-1.69 3.253-1.747 5.241H2.554c.057-5.198 1.506-9.772 4.347-13.721 2.84-3.977 6.704-7.088 11.59-9.332C23.408 1.656 29.004.534 35.282.534c6.25 0 11.748 1.094 16.492 3.281 4.744 2.188 8.438 5.17 11.08 8.95 2.642 3.75 3.963 7.996 3.963 12.74.028 4.916-1.577 8.964-4.816 12.146-3.21 3.181-7.343 5.142-12.4 5.88v.682c6.761.795 11.86 2.983 15.298 6.563 3.466 3.58 5.185 8.053 5.156 13.423 0 5.057-1.491 9.545-4.474 13.466-2.955 3.892-7.074 6.96-12.358 9.204-5.256 2.216-11.293 3.324-18.11 3.324z" fill="url(#dpaint0_linear_1_3703)"/><defs><linearGradient id="dpaint0_linear_1_3703" x1="35.5" y1="-27" x2="164.74" y2="71.329" gradientUnits="userSpaceOnUse"><stop stop-color="#8BD7DC"/><stop offset="1" stop-color="#1246A9"/></linearGradient></defs></svg></svg>